<svg width="128" height="24" viewBox="0 0 128 24" fill="none" xmlns="http://www.w3.org/2000/svg">
<path d="M43.6904 22.6082H50.1221V21.777C49.7124 21.7872 49.3026 21.7699 48.8952 21.7254C48.6555 21.7095 48.4258 21.6227 48.2353 21.476C48.0807 21.3246 47.9854 21.1227 47.9667 20.907C47.9227 20.5655 47.9052 20.2212 47.9143 19.8771V14.7471H49.7182C50.5065 14.7557 51.2943 14.7039 52.0747 14.5924C52.6572 14.5107 53.2282 14.3617 53.7764 14.1485C54.2184 13.9711 54.6334 13.7326 55.0091 13.4399C55.5248 13.0199 55.9286 12.4788 56.1844 11.8647C56.455 11.196 56.5884 10.4797 56.5765 9.75842C56.5851 9.03505 56.4339 8.3187 56.1337 7.6606C55.8614 7.07551 55.4616 6.55892 54.9636 6.14877C54.6079 5.87535 54.2135 5.65649 53.7933 5.49938C53.2769 5.30956 52.7406 5.17936 52.1947 5.11129C51.46 5.02088 50.7203 4.97849 49.9801 4.98443H43.6904V5.81646C44.034 5.8067 44.3778 5.82366 44.7187 5.86719C44.9333 5.87571 45.1368 5.96473 45.2888 6.11654C45.4408 6.26834 45.5302 6.4718 45.5391 6.68652C45.5817 7.02778 45.5986 7.37177 45.5898 7.71556V19.8754C45.5984 20.2144 45.5815 20.5536 45.5391 20.89C45.5305 21.1056 45.4415 21.3101 45.2896 21.4631C45.1377 21.6162 44.9341 21.7068 44.7187 21.717C44.378 21.7627 44.0341 21.781 43.6904 21.7719V22.6082ZM47.9151 13.702V7.43231C47.9091 7.13508 47.921 6.83775 47.9506 6.54194C47.9563 6.38897 48.0162 6.24301 48.1196 6.13016C48.2257 6.05218 48.3571 6.01687 48.488 6.03123H49.6988C50.0794 6.02766 50.4599 6.04489 50.8386 6.08281C51.2441 6.11967 51.6437 6.20482 52.0291 6.33646C52.4207 6.46351 52.7836 6.66636 53.0971 6.93344C53.4375 7.23033 53.7008 7.60551 53.8643 8.02673C54.0753 8.58106 54.1761 9.17132 54.1609 9.76433C54.1806 10.415 54.0721 11.0632 53.8415 11.6719C53.6559 12.151 53.3426 12.5701 52.9357 12.8835C52.5166 13.193 52.0369 13.4103 51.528 13.5211C50.9281 13.6538 50.3148 13.7159 49.7005 13.7063L47.9151 13.702Z" fill="#E99323"/>
<path d="M90.8699 18.0964C91.0039 18.6268 91.1304 19.1967 91.2492 19.8061C91.3681 20.4154 91.4709 21.104 91.5576 21.8717C91.9974 22.0252 92.4447 22.1562 92.8977 22.2641C93.3625 22.3744 93.833 22.4591 94.3071 22.5177C94.7728 22.5772 95.2418 22.6077 95.7113 22.609C96.772 22.6282 97.8244 22.4177 98.7962 21.9918C99.6093 21.6261 100.301 21.0356 100.79 20.2897C101.271 19.5278 101.518 18.642 101.502 17.7412C101.507 17.1786 101.417 16.6193 101.236 16.0865C101.073 15.6127 100.834 15.1687 100.528 14.7717C100.28 14.438 99.99 14.1374 99.6657 13.8771C99.3226 13.5964 98.9102 13.2953 98.432 12.9791C97.9537 12.6629 97.4037 12.3027 96.7776 11.8985C96.1861 11.5189 95.6792 11.1739 95.2568 10.8695C94.8834 10.6048 94.5349 10.3065 94.2158 9.97827C93.9619 9.71116 93.7612 9.39807 93.6244 9.05577C93.4918 8.69625 93.4274 8.31517 93.4343 7.93203C93.4283 7.53855 93.5151 7.14921 93.6877 6.79562C93.8475 6.47773 94.079 6.20129 94.3637 5.98811C94.6552 5.76722 94.9849 5.60185 95.3362 5.50023C95.705 5.39365 96.0871 5.34068 96.471 5.34295C96.9455 5.32881 97.4197 5.38351 97.8786 5.50531C98.225 5.60063 98.5383 5.78962 98.7843 6.05153C99.043 6.35012 99.2372 6.69904 99.3547 7.07634C99.5242 7.59639 99.6549 8.12827 99.7459 8.66765L100.791 8.4774C100.712 8.06223 100.636 7.64199 100.569 7.21584C100.502 6.78968 100.442 6.3796 100.388 5.98896C100.334 5.59831 100.284 5.23642 100.244 4.9168C99.7001 4.69522 99.1335 4.53307 98.5545 4.43315C97.8968 4.32298 97.2308 4.27006 96.5639 4.27503C95.8404 4.26649 95.1192 4.35724 94.4203 4.54476C93.8786 4.69245 93.3664 4.93245 92.9062 5.25419C92.5265 5.52348 92.1994 5.86022 91.9412 6.24769C91.7108 6.59018 91.5357 6.96684 91.4224 7.36382C91.3226 7.71936 91.2723 8.08697 91.2728 8.45627C91.2648 9.03961 91.3696 9.61902 91.5813 10.1626C91.787 10.6589 92.0832 11.1126 92.4549 11.5002C92.8692 11.9311 93.3251 12.3197 93.8161 12.6603C94.3459 13.0366 94.9349 13.4323 95.5905 13.8441C96.2234 14.2474 96.7734 14.6118 97.2305 14.9433C97.6423 15.2242 98.0242 15.5467 98.3703 15.9055C98.6566 16.2087 98.881 16.5648 99.031 16.954C99.1812 17.3822 99.2536 17.8338 99.2448 18.2875C99.2523 18.7818 99.1537 19.2719 98.9558 19.7249C98.7785 20.1161 98.5162 20.4628 98.1878 20.7395C97.8683 21.0091 97.4992 21.2136 97.1013 21.3416C96.6975 21.4732 96.2754 21.5399 95.8508 21.5394C95.3796 21.5486 94.9094 21.4917 94.454 21.3703C94.0498 21.2635 93.6759 21.0644 93.3616 20.7886C93.0104 20.4687 92.7258 20.0825 92.5243 19.6522C92.2467 19.0705 92.0331 18.4604 91.8872 17.8325L90.8699 18.0964Z" fill="#E99323"/>
<path d="M104.813 20.3794C104.619 20.3781 104.428 20.4314 104.263 20.5333C104.106 20.6329 103.978 20.7719 103.891 20.9366C103.802 21.1086 103.756 21.2994 103.756 21.493C103.756 21.6841 103.803 21.8723 103.891 22.0417C103.977 22.2083 104.105 22.3495 104.263 22.451C104.428 22.5539 104.618 22.6084 104.813 22.6082C105.004 22.608 105.192 22.5534 105.354 22.451C105.512 22.3487 105.642 22.2079 105.731 22.0417C105.822 21.8731 105.87 21.6846 105.87 21.493C105.871 21.3047 105.825 21.119 105.737 20.9527C105.654 20.786 105.528 20.6444 105.372 20.5426C105.206 20.4335 105.011 20.3763 104.813 20.3785" fill="#3D3D3D"/>
<path d="M115.399 14.4064C115.478 14.1881 115.58 13.9792 115.704 13.7832C115.776 13.6632 115.886 13.5702 116.016 13.5186C116.157 13.4718 116.306 13.4526 116.455 13.4619V12.876H113.836V13.4619C114.049 13.4474 114.264 13.4709 114.469 13.5313C114.523 13.5464 114.571 13.5799 114.604 13.6261C114.636 13.6723 114.652 13.7284 114.648 13.7849C114.638 13.9417 114.599 14.0953 114.534 14.2381L112.288 20.321H112.25L110.099 14.5409C110.041 14.3895 109.995 14.2576 109.96 14.1409C109.931 14.044 109.914 13.9437 109.91 13.8424C109.904 13.7766 109.921 13.7107 109.958 13.6556C109.994 13.6006 110.049 13.5597 110.112 13.5397C110.334 13.4758 110.566 13.4504 110.798 13.4645V12.8785H107.003V13.4645C107.138 13.4597 107.274 13.4714 107.406 13.4991C107.519 13.5249 107.622 13.5814 107.705 13.6623C107.815 13.7779 107.907 13.9096 107.978 14.053C108.07 14.2289 108.18 14.4681 108.306 14.7675L111.478 22.6065H112.194L115.399 14.4064Z" fill="#3D3D3D"/>
<path d="M120.178 14.3734L120.103 12.7669L119.857 12.6341C119.471 12.8816 119.054 13.0785 118.618 13.2201C118.173 13.362 117.716 13.4633 117.253 13.5228V14.0513C117.474 14.0415 117.695 14.052 117.914 14.0825C118.054 14.0992 118.185 14.1637 118.284 14.2652C118.377 14.3874 118.433 14.5344 118.444 14.688C118.473 14.9346 118.485 15.1829 118.48 15.4312V20.3819C118.484 20.636 118.473 20.8901 118.447 21.1429C118.437 21.2981 118.383 21.4471 118.29 21.5716C118.193 21.6761 118.062 21.742 117.921 21.7567C117.7 21.792 117.476 21.8056 117.252 21.7973V22.3833H121.216V21.7973C121.027 21.8058 120.838 21.7922 120.653 21.7567C120.533 21.738 120.426 21.6726 120.354 21.5749C120.28 21.4458 120.24 21.3006 120.237 21.1522C120.216 20.9019 120.209 20.6507 120.215 20.3996V15.3754C120.478 15.0245 120.77 14.6972 121.09 14.3971C121.357 14.1395 121.657 13.9193 121.984 13.7426C122.253 13.5963 122.552 13.5152 122.858 13.5059C123.201 13.4895 123.543 13.5666 123.846 13.7291C124.117 13.8991 124.318 14.1607 124.412 14.4664C124.548 14.9008 124.61 15.355 124.594 15.81V20.3819C124.599 20.6358 124.591 20.8898 124.569 21.1429C124.56 21.2943 124.515 21.4414 124.437 21.5716C124.361 21.6708 124.25 21.7371 124.126 21.7567C123.938 21.7921 123.747 21.8057 123.556 21.7973V22.3833H127.37V21.7973C127.136 21.8155 126.901 21.7832 126.681 21.7026C126.604 21.6653 126.537 21.6096 126.487 21.5405C126.436 21.4713 126.404 21.3908 126.392 21.3061C126.341 21.013 126.321 20.7155 126.332 20.4182V15.7314C126.338 15.3158 126.29 14.9011 126.19 14.4977C126.102 14.1405 125.94 13.8057 125.715 13.5152C125.476 13.2264 125.167 13.0033 124.818 12.8667C124.373 12.7011 123.9 12.6218 123.425 12.6333C122.814 12.6361 122.215 12.7969 121.684 13.1C121.12 13.4282 120.622 13.8583 120.215 14.3684L120.178 14.3734Z" fill="#3D3D3D"/>
<path fill-rule="evenodd" clip-rule="evenodd" d="M73.7473 7.71307C75.0787 7.67483 76.3707 8.16683 77.3399 9.08108C78.3091 9.99532 78.8762 11.2571 78.9166 12.5893C78.8961 13.6646 78.5244 14.7035 77.8582 15.5474C77.1921 16.3913 76.2681 16.9938 75.2276 17.2627C75.9572 16.9536 76.5792 16.4354 77.0152 15.7734C77.4512 15.1114 77.6818 14.3351 77.6779 13.5423C77.6779 12.4995 77.264 11.4994 76.5272 10.7621C75.7904 10.0247 74.791 9.61047 73.749 9.61047C72.707 9.61047 71.7076 10.0247 70.9708 10.7621C70.234 11.4994 69.8201 12.4995 69.8201 13.5423C69.8161 14.3351 70.0466 15.1115 70.4826 15.7735C70.9187 16.4355 71.5407 16.9537 72.2703 17.2627C71.2298 16.9937 70.3058 16.3913 69.6396 15.5474C68.9733 14.7035 68.6014 13.6646 68.5806 12.5893C68.621 11.2572 69.1879 9.99561 70.1569 9.08138C71.1259 8.16716 72.4178 7.67505 73.749 7.71307" fill="#E99323"/>
<path fill-rule="evenodd" clip-rule="evenodd" d="M73.748 3.82782C78.9274 3.82782 83.1267 7.78751 83.1267 12.6722C83.0958 14.5082 82.497 16.2896 81.4129 17.771C80.3288 19.2525 78.8125 20.3614 77.0728 20.9451C78.7353 20.1975 80.0885 18.898 80.9034 17.2664C81.7183 15.6349 81.9447 13.7717 81.5443 11.9923C81.144 10.2129 80.1414 8.62663 78.7064 7.50208C77.2714 6.37754 75.4921 5.78384 73.6699 5.82149C71.8476 5.85914 70.0944 6.52583 68.707 7.7087C67.3196 8.89156 66.3833 10.5179 66.0567 12.3123C65.7301 14.1068 66.0332 15.959 66.9146 17.5555C67.7961 19.1519 69.2018 20.3945 70.8938 21.0728C70.9512 21.099 71.0095 21.1243 71.0678 21.148C69.1807 20.6599 67.5049 19.5671 66.2966 18.0365C65.0883 16.5059 64.4138 14.6217 64.376 12.6714C64.376 7.78668 68.5736 3.82697 73.7505 3.82697" fill="#E99323"/>
<path fill-rule="evenodd" clip-rule="evenodd" d="M73.7472 0C81.2147 0 87.2661 5.70996 87.2661 12.7534C87.2435 14.957 86.6437 17.1162 85.5265 19.0154C84.4094 20.9145 82.8139 22.4872 80.8995 23.5764C82.8889 22.0755 84.3571 19.9873 85.0967 17.6065C85.8364 15.2257 85.8102 12.6725 85.0219 10.3074C84.2335 7.94233 82.7228 5.88472 80.703 4.42504C78.6833 2.96536 76.2564 2.17735 73.765 2.17221C71.2736 2.16708 68.8435 2.94508 66.8178 4.39642C64.792 5.84776 63.2728 7.89912 62.4747 10.261C61.6767 12.6228 61.64 15.1758 62.3698 17.5597C63.0997 19.9435 64.5592 22.0377 66.5424 23.5468C64.642 22.454 63.0597 20.8835 61.9522 18.9907C60.8447 17.0979 60.2505 14.9484 60.2283 12.7551C60.2283 5.71167 66.2805 0.00167726 73.7472 0.00167726" fill="#E99323"/>
<path d="M38.9944 9.2782H17.0886V22.9473H38.9944V9.2782Z" fill="white"/>
<path d="M41.0551 3.31458H0.630127V9.27822H41.0551V3.31458Z" fill="#E99323"/>
<path d="M38.2313 0.0786744H3.45305C3.08227 0.0786744 2.71512 0.151782 2.37257 0.293803C2.03002 0.435824 1.71879 0.643979 1.45664 0.906391C1.1945 1.1688 0.986579 1.48034 0.844764 1.82318C0.702949 2.16602 0.630016 2.53345 0.630127 2.9045V4.12971H41.0551V2.9045C41.0552 2.53338 40.9822 2.16587 40.8404 1.82298C40.6985 1.48008 40.4905 1.16853 40.2283 0.906108C39.966 0.643684 39.6547 0.435542 39.3121 0.293571C38.9694 0.151599 38.6022 0.0785633 38.2313 0.0786744Z" fill="#CF232A"/>
<path d="M0.630127 21.1742C0.630016 21.5452 0.702949 21.9127 0.844764 22.2555C0.986579 22.5984 1.1945 22.9099 1.45664 23.1723C1.71879 23.4347 2.03002 23.6429 2.37257 23.7849C2.71512 23.9269 3.08227 24 3.45305 24H38.2313C38.6022 24.0001 38.9694 23.9271 39.3121 23.7851C39.6547 23.6432 39.966 23.435 40.2283 23.1726C40.4905 22.9102 40.6985 22.5986 40.8404 22.2557C40.9822 21.9128 41.0552 21.5453 41.0551 21.1742V8.67194H0.630127V21.1742ZM19.0547 21.5124C19.3374 21.5225 19.6203 21.5052 19.8997 21.4608C20.0769 21.4415 20.2413 21.359 20.3627 21.2283C20.4786 21.071 20.5472 20.8838 20.5604 20.6888C20.5926 20.3706 20.6056 20.0507 20.5993 19.7308V13.5085C20.6063 13.1978 20.5922 12.8871 20.557 12.5784C20.5416 12.3858 20.4712 12.2018 20.3542 12.0482C20.2297 11.9203 20.0651 11.8391 19.8878 11.8182C19.6125 11.7798 19.3342 11.7668 19.0564 11.7793V11.1147C19.6351 11.0384 20.2059 10.9114 20.7623 10.735C21.3204 10.5533 21.855 10.3061 22.355 9.9986L22.6398 10.1677L22.7344 12.0194H22.7589C23.0825 11.6659 23.434 11.3391 23.81 11.042C24.1893 10.74 24.607 10.4898 25.0521 10.2979C25.5059 10.1027 25.9945 10.0017 26.4885 10.0011C26.9428 9.99543 27.3952 10.0622 27.8285 10.199C28.1667 10.3098 28.4818 10.4817 28.7579 10.7063C28.992 10.8999 29.1919 11.1314 29.3494 11.3912C29.4868 11.6156 29.5923 11.8581 29.6629 12.1116H29.7566C30.0754 11.7373 30.4262 11.3915 30.8052 11.0783C31.1894 10.7563 31.6205 10.4948 32.0836 10.303C32.5805 10.099 33.113 9.99552 33.6501 9.9986C34.0845 9.99215 34.517 10.0561 34.931 10.188C35.3395 10.3173 35.711 10.5429 36.0142 10.8458C36.3607 11.2067 36.6169 11.6445 36.762 12.1235C36.964 12.7804 37.059 13.4656 37.0433 14.1528V19.8526C37.0393 20.1502 37.0522 20.4477 37.0822 20.7438C37.0987 20.9235 37.16 21.0962 37.2605 21.2461C37.3602 21.3649 37.4994 21.4435 37.6525 21.4676C37.8821 21.5076 38.1151 21.5235 38.3479 21.515V22.2514H33.5546V21.515C33.8397 21.5344 34.1259 21.5023 34.3996 21.4203C34.4932 21.3847 34.5766 21.3263 34.6421 21.2504C34.7076 21.1746 34.7532 21.0836 34.7747 20.9856C34.8441 20.6521 34.8725 20.3114 34.8592 19.971V14.3439C34.8633 13.9358 34.835 13.5281 34.7747 13.1246C34.7247 12.7649 34.6231 12.4143 34.4731 12.0837C34.3408 11.7942 34.1352 11.5444 33.8765 11.3591C33.5895 11.1739 33.253 11.0802 32.9116 11.0902C32.5174 11.0922 32.129 11.1857 31.7769 11.3633C31.4063 11.5603 31.0697 11.8155 30.7799 12.1192C30.4497 12.4673 30.1543 12.8468 29.8978 13.2523V19.8543C29.8918 20.1559 29.9053 20.4575 29.9383 20.7573C29.9515 20.9362 30.0125 21.1082 30.1149 21.2554C30.2142 21.3728 30.3537 21.449 30.5061 21.4693C30.7362 21.5093 30.9698 21.5252 31.2032 21.5166V22.2531H26.4352V21.5166C26.6739 21.5257 26.9129 21.5098 27.1483 21.4693C27.2964 21.4482 27.4323 21.3755 27.5319 21.2638C27.6254 21.125 27.6797 20.9634 27.6891 20.7962C27.7129 20.5224 27.7222 20.2475 27.717 19.9727V14.4166C27.717 14.1587 27.717 13.8856 27.6975 13.5846C27.6808 13.2879 27.6421 12.9928 27.5818 12.7018C27.5236 12.4202 27.4225 12.1493 27.2818 11.8985C27.1469 11.6584 26.9518 11.4576 26.7157 11.3159C26.4345 11.1594 26.1164 11.0814 25.7948 11.0902C25.2587 11.1102 24.7441 11.3063 24.3305 11.6483C23.7419 12.1175 23.2202 12.6651 22.78 13.2759V19.8298C22.7727 20.1329 22.7846 20.4362 22.8155 20.7379C22.8275 20.9195 22.8876 21.0946 22.9896 21.2452C23.0906 21.3661 23.2332 21.4448 23.3892 21.4659C23.6262 21.51 23.8674 21.5273 24.1083 21.5175V22.254H19.0539L19.0547 21.5124Z" fill="#CF232A"/>
</svg>
