<svg width="40" height="24" viewBox="0 0 40 24" fill="none" xmlns="http://www.w3.org/2000/svg">
<path d="M37.9608 9.26855H16.2854V22.794H37.9608V9.26855Z" fill="white"/>
<path d="M40 3.36719H0V9.26814H40V3.36719Z" fill="#E99323"/>
<path d="M37.2059 0.165039H2.79325C2.42636 0.165039 2.06307 0.237378 1.72412 0.377906C1.38518 0.518434 1.07721 0.724401 0.817827 0.984055C0.558439 1.24371 0.352705 1.55198 0.212381 1.89121C0.0720561 2.23045 -0.000109688 2.59401 1.25136e-07 2.96116V4.17349H40V2.96116C40.0001 2.59394 39.9279 2.2303 39.7875 1.89101C39.6472 1.55172 39.4413 1.24344 39.1819 0.983774C38.9224 0.724109 38.6143 0.518155 38.2753 0.377676C37.9363 0.237197 37.5729 0.164929 37.2059 0.165039Z" fill="#CF232A"/>
<path d="M1.25136e-07 21.0388C-0.000109688 21.4059 0.0720561 21.7695 0.212381 22.1088C0.352705 22.448 0.558439 22.7562 0.817827 23.0159C1.07721 23.2756 1.38518 23.4815 1.72412 23.622C2.06307 23.7626 2.42636 23.8349 2.79325 23.8349H37.2059C37.5729 23.835 37.9363 23.7628 38.2753 23.6223C38.6143 23.4818 38.9224 23.2759 39.1819 23.0162C39.4414 22.7565 39.6472 22.4482 39.7875 22.1089C39.9279 21.7697 40.0001 21.406 40 21.0388V8.66797H1.25136e-07V21.0388ZM18.2309 21.3735C18.5106 21.3834 18.7906 21.3663 19.067 21.3224C19.2424 21.3033 19.405 21.2216 19.5251 21.0923C19.6398 20.9367 19.7077 20.7515 19.7208 20.5585C19.7526 20.2436 19.7655 19.9271 19.7592 19.6106V13.4537C19.7662 13.1463 19.7522 12.8388 19.7174 12.5333C19.7022 12.3428 19.6325 12.1607 19.5168 12.0087C19.3936 11.8822 19.2306 11.8018 19.0553 11.7812C18.7828 11.7431 18.5074 11.7303 18.2326 11.7427V11.0851C18.8052 11.0096 19.37 10.8839 19.9206 10.7094C20.4728 10.5296 21.0018 10.285 21.4965 9.98069L21.7783 10.148L21.8719 11.9803H21.8962C22.2164 11.6305 22.5642 11.3071 22.9362 11.0131C23.3115 10.7143 23.7248 10.4668 24.1652 10.2768C24.6142 10.0837 25.0978 9.98379 25.5865 9.98319C26.0361 9.97755 26.4837 10.0436 26.9125 10.179C27.2471 10.2886 27.5588 10.4587 27.8321 10.6809C28.0637 10.8725 28.2616 11.1016 28.4174 11.3586C28.5534 11.5807 28.6578 11.8206 28.7275 12.0715H28.8203C29.1357 11.7011 29.4829 11.3589 29.8579 11.0491C30.238 10.7304 30.6646 10.4717 31.1228 10.2819C31.6145 10.08 32.1414 9.97764 32.6729 9.98069C33.1027 9.9743 33.5307 10.0376 33.9403 10.1681C34.3445 10.296 34.7121 10.5192 35.0121 10.819C35.3549 11.1761 35.6085 11.6093 35.752 12.0832C35.9519 12.7332 36.0459 13.4112 36.0304 14.0912V19.7311C36.0264 20.0255 36.0392 20.32 36.0689 20.6129C36.0852 20.7907 36.1459 20.9616 36.2453 21.1099C36.3439 21.2275 36.4817 21.3053 36.6332 21.3291C36.8603 21.3687 37.0909 21.3844 37.3213 21.376V22.1047H32.5784V21.376C32.8604 21.3952 33.1436 21.3634 33.4144 21.2823C33.5071 21.2471 33.5896 21.1893 33.6544 21.1142C33.7192 21.0392 33.7643 20.9491 33.7856 20.8522C33.8543 20.5222 33.8824 20.185 33.8692 19.8482V14.2803C33.8733 13.8765 33.8453 13.4731 33.7856 13.0738C33.7361 12.7179 33.6356 12.371 33.4872 12.0439C33.3563 11.7574 33.1528 11.5102 32.8969 11.3269C32.6128 11.1436 32.2799 11.0509 31.9421 11.0608C31.552 11.0628 31.1677 11.1553 30.8193 11.331C30.4526 11.5259 30.1195 11.7785 29.8328 12.079C29.5061 12.4234 29.2138 12.7989 28.96 13.2001V19.7328C28.9541 20.0312 28.9675 20.3297 29.0001 20.6263C29.0132 20.8033 29.0735 20.9735 29.1748 21.1191C29.2731 21.2353 29.4111 21.3108 29.5619 21.3308C29.7896 21.3704 30.0207 21.3861 30.2517 21.3776V22.1064H25.5338V21.3776C25.77 21.3866 26.0065 21.3709 26.2394 21.3308C26.386 21.31 26.5204 21.238 26.619 21.1275C26.7115 20.9901 26.7652 20.8302 26.7745 20.6648C26.7981 20.3939 26.8073 20.1218 26.8021 19.8499V14.3522C26.8021 14.097 26.8021 13.8268 26.7829 13.529C26.7663 13.2354 26.728 12.9434 26.6683 12.6555C26.6108 12.3769 26.5107 12.1088 26.3715 11.8606C26.2381 11.623 26.045 11.4243 25.8114 11.2842C25.5331 11.1293 25.2184 11.0521 24.9001 11.0608C24.3696 11.0806 23.8605 11.2747 23.4512 11.613C22.8688 12.0773 22.3526 12.6192 21.9171 13.2236V19.7085C21.9098 20.0085 21.9215 20.3086 21.9522 20.6071C21.964 20.7868 22.0235 20.96 22.1244 21.1091C22.2244 21.2287 22.3654 21.3066 22.5199 21.3274C22.7544 21.371 22.993 21.3882 23.2313 21.3785V22.1072H18.2301L18.2309 21.3735Z" fill="#CF232A"/>
</svg>
