<svg width="24" height="24" viewBox="0 0 24 24" fill="none" xmlns="http://www.w3.org/2000/svg">
<path d="M16.189 12.7682C16.354 12.7682 16.4877 12.9018 16.4877 13.0667V13.4417H17.5609C17.7259 13.4417 17.8597 13.5753 17.8597 13.7402V14.1188C17.8597 14.2837 17.7259 14.4173 17.5609 14.4173H15.314C15.1886 14.4173 15.0684 14.4671 14.9798 14.5557C14.8912 14.6443 14.8414 14.7645 14.8414 14.8898C14.8414 15.0152 14.8912 15.1354 14.9798 15.224C15.0684 15.3126 15.1886 15.3624 15.314 15.3624H16.6859C17.07 15.3624 17.4383 15.5149 17.7099 15.7865C17.9815 16.0581 18.1341 16.4264 18.1341 16.8105C18.1341 17.1946 17.9815 17.5629 17.7099 17.8345C17.4383 18.1061 17.07 18.2586 16.6859 18.2586H16.4877V18.6836C16.4877 18.8484 16.354 18.982 16.189 18.982H15.8109C15.6459 18.982 15.5121 18.8484 15.5121 18.6836V18.2586H14.1646C13.9996 18.2586 13.8658 18.125 13.8658 17.9602V17.5815C13.8658 17.4167 13.9996 17.2831 14.1646 17.2831H16.6859C16.8112 17.2831 16.9314 17.2333 17.0201 17.1447C17.1087 17.056 17.1585 16.9358 17.1585 16.8105C17.1585 16.6852 17.1087 16.565 17.0201 16.4764C16.9314 16.3877 16.8112 16.338 16.6859 16.338H15.314C14.9299 16.338 14.5615 16.1854 14.29 15.9138C14.0184 15.6422 13.8658 15.2739 13.8658 14.8898C13.8658 14.5058 14.0184 14.1374 14.29 13.8658C14.5615 13.5943 14.9299 13.4417 15.314 13.4417H15.5121V13.0667C15.5121 12.9018 15.6459 12.7682 15.8109 12.7682H16.189Z" fill="#525B73"/>
<path fill-rule="evenodd" clip-rule="evenodd" d="M16 21C18.7614 21 21 18.7615 21 16.0001C21 13.2192 19.0081 11.0015 16 11.0015C13.0325 11.0015 11.0001 13.285 11.0001 16.0001C11.0001 18.6903 13.2787 21 16 21ZM16 12.2198C13.9121 12.2198 12.2196 13.9123 12.2196 16.0001C12.2196 18.088 13.9121 19.7805 16 19.7805C18.0879 19.7805 19.7805 18.088 19.7805 16.0001C19.7805 13.9123 18.0879 12.2198 16 12.2198Z" fill="#525B73"/>
<path d="M6.7317 6C6.32759 6 6 6.32759 6 6.73169C6 7.13579 6.32759 7.46337 6.7317 7.46337H13.5609C13.965 7.46337 14.2926 7.13579 14.2926 6.73169C14.2926 6.32759 13.965 6 13.5609 6H6.7317Z" fill="#525B73"/>
<path d="M6.7317 8.92725C6.32759 8.92725 6 9.25484 6 9.65894C6 10.063 6.32759 10.3906 6.7317 10.3906H9.65851C10.0626 10.3906 10.3902 10.063 10.3902 9.65894C10.3902 9.25484 10.0626 8.92725 9.65851 8.92725H6.7317Z" fill="#525B73"/>
<path d="M6 12.5857C6 12.1816 6.32759 11.854 6.7317 11.854H9.65851C10.0626 11.854 10.3902 12.1816 10.3902 12.5857C10.3902 12.9898 10.0626 13.3174 9.65851 13.3174H6.7317C6.32759 13.3174 6 12.9898 6 12.5857Z" fill="#525B73"/>
<path fill-rule="evenodd" clip-rule="evenodd" d="M11.7953 1C13.6318 0.999992 15.0714 0.999986 16.2135 1.12373C17.3791 1.25001 18.3234 1.51232 19.1298 2.09815C19.6179 2.45281 20.0472 2.88209 20.4018 3.37024C20.9877 4.17656 21.25 5.12094 21.3763 6.28648C21.5 7.42859 21.5 8.86824 21.5 10.7047V12.7953C21.5 12.8747 21.5 12.9534 21.5 13.0313C21.071 12.5453 20.5646 12.1293 20 11.8027V10.75C20 8.85843 19.999 7.49999 19.885 6.44805C19.7725 5.41013 19.5574 4.75992 19.1883 4.25191C18.9262 3.89111 18.6089 3.57382 18.2481 3.31168C17.7401 2.94259 17.0899 2.72745 16.052 2.615C15 2.50103 13.6416 2.5 11.75 2.5C9.85843 2.5 8.49999 2.50103 7.44804 2.615C6.41013 2.72745 5.75992 2.94259 5.25191 3.31168C4.89111 3.57382 4.57382 3.89111 4.31168 4.25191C3.94259 4.75992 3.72745 5.41013 3.615 6.44805C3.50103 7.49999 3.5 8.85843 3.5 10.75V12.75C3.5 14.6416 3.50103 16 3.615 17.052C3.72745 18.0899 3.94259 18.7401 4.31168 19.2481C4.57382 19.6089 4.89111 19.9262 5.25191 20.1883C5.75992 20.5574 6.41013 20.7725 7.44804 20.885C8.49999 20.999 9.85843 21 11.75 21C12.0198 21 12.2787 21 12.5274 20.9996C13.086 21.6238 13.7734 22.1304 14.5478 22.4776C13.7452 22.5 12.8337 22.5 11.7953 22.5H11.7047C9.86817 22.5 8.42859 22.5 7.28648 22.3763C6.12094 22.25 5.17656 21.9877 4.37024 21.4018C3.88209 21.0472 3.45281 20.6179 3.09815 20.1298C2.51232 19.3234 2.25001 18.3791 2.12373 17.2135C1.99999 16.0714 1.99999 14.6318 2 12.7953V12.7953V10.7048V10.7047C1.99999 8.86821 1.99999 7.42861 2.12373 6.28648C2.25001 5.12094 2.51232 4.17656 3.09815 3.37024C3.45281 2.88209 3.88209 2.45281 4.37024 2.09815C5.17656 1.51232 6.12094 1.25001 7.28648 1.12373C8.42861 0.999986 9.8682 0.999992 11.7047 1H11.7048H11.7953H11.7953Z" fill="#525B73"/>
</svg>
