<svg width="24" height="24" viewBox="0 0 24 24" fill="none" xmlns="http://www.w3.org/2000/svg">
<path fill-rule="evenodd" clip-rule="evenodd" d="M10.4994 4.53053C11.4917 4.35117 12.5084 4.35117 13.5006 4.53053C17.9595 5.33647 20.9683 9.51727 20.2961 13.9728L20.2884 14.0235C18.9303 14.0944 17.8511 15.2115 17.8511 16.5793V18.4406C17.8511 19.8541 19.0037 21 20.4255 21C21.8474 21 23 19.8541 23 18.4406V16.5793C23 15.6106 22.459 14.7686 21.6615 14.3339L21.6848 14.1798C22.4696 8.97853 18.9571 4.09789 13.7518 3.15704C12.5934 2.94765 11.4066 2.94765 10.2482 3.15704C5.04293 4.09789 1.53041 8.97853 2.31521 14.1798L2.33845 14.3339C1.54097 14.7686 1 15.6106 1 16.5793V18.4406C1 19.8541 2.15263 21 3.57447 21C4.99631 21 6.14894 19.8541 6.14894 18.4406V16.5793C6.14894 15.2115 5.06968 14.0944 3.71158 14.0235L3.70393 13.9728C3.03166 9.51727 6.04052 5.33647 10.4994 4.53053ZM3.2867 15.4512C3.37803 15.4283 3.4743 15.4159 3.57447 15.4159C4.22076 15.4159 4.74468 15.9368 4.74468 16.5793V18.4406C4.74468 19.0831 4.22076 19.604 3.57447 19.604C2.92818 19.604 2.40426 19.0831 2.40426 18.4406V16.5793C2.40426 16.0363 2.77917 15.5785 3.2867 15.4512ZM19.2553 16.5793C19.2553 15.9368 19.7792 15.4159 20.4255 15.4159C20.5257 15.4159 20.622 15.4283 20.7133 15.4512C21.2208 15.5785 21.5957 16.0363 21.5957 16.5793V18.4406C21.5957 19.0831 21.0718 19.604 20.4255 19.604C19.7792 19.604 19.2553 19.0831 19.2553 18.4406V16.5793Z" fill="#525B73"/>
</svg>
