<svg width="24" height="24" viewBox="0 0 24 24" fill="none" xmlns="http://www.w3.org/2000/svg">
<path fill-rule="evenodd" clip-rule="evenodd" d="M14.2597 4.18541C12.8856 3.27045 11.1144 3.27046 9.74029 4.18541L5.35005 7.10872C4.17335 7.89224 3.46341 9.23236 3.46341 10.67V17.2528C3.46341 19.0467 4.883 20.5009 6.63415 20.5009H8.02449V14.7791C8.02449 13.5372 9.00728 12.5304 10.2196 12.5304H13.7806C14.9929 12.5304 15.9757 13.5372 15.9757 14.7791V20.5009H17.3659C19.117 20.5009 20.5366 19.0467 20.5366 17.2528V10.67C20.5366 9.23236 19.8267 7.89224 18.65 7.10872L14.2597 4.18541ZM14.5123 20.5009V14.7791C14.5123 14.3652 14.1847 14.0296 13.7806 14.0296H10.2196C9.8155 14.0296 9.48791 14.3652 9.48791 14.7791V20.5009H14.5123ZM8.94275 2.92847C10.8018 1.69059 13.1982 1.69059 15.0573 2.92847L19.4475 5.85178C21.0395 6.91184 22 8.72493 22 10.67V17.2528C22 19.8746 19.9252 22.0001 17.3659 22.0001H6.63415C4.07478 22.0001 2 19.8746 2 17.2528V10.67C2 8.72494 2.96049 6.91184 4.5525 5.85178L8.94275 2.92847Z" fill="#525B73"/>
</svg>
