<svg width="24" height="24" viewBox="0 0 24 24" fill="none" xmlns="http://www.w3.org/2000/svg">
<path fill-rule="evenodd" clip-rule="evenodd" d="M11.9548 2.25L12 2.25H12.0111C13.1711 2.25 14.1685 2.25 15.0257 2.27937C16.8991 2.34356 18.2761 2.5463 19.3798 3.34815C19.8679 3.70281 20.2972 4.13209 20.6518 4.62024C21.4537 5.7239 21.6564 7.10088 21.7206 8.97432C21.75 9.83153 21.75 10.8289 21.75 11.989V12V12.0453C21.75 13.8818 21.75 15.3214 21.6263 16.4635C21.5 17.6291 21.2377 18.5734 20.6518 19.3798C20.2972 19.8679 19.8679 20.2972 19.3798 20.6518C18.5734 21.2377 17.6291 21.5 16.4635 21.6263C15.3214 21.75 13.8818 21.75 12.0453 21.75H12H11.9547C10.1182 21.75 8.67861 21.75 7.53648 21.6263C6.37094 21.5 5.42656 21.2377 4.62024 20.6518C4.13209 20.2972 3.70281 19.8679 3.34815 19.3798C2.76232 18.5734 2.50001 17.6291 2.37373 16.4635C2.24999 15.3214 2.24999 13.8818 2.25 12.0453L2.25 12L2.25 11.9548C2.24999 10.1182 2.24999 8.67861 2.37373 7.53648C2.50001 6.37094 2.76232 5.42656 3.34815 4.62024C3.70281 4.13209 4.13209 3.70281 4.62024 3.34815C5.42656 2.76232 6.37094 2.50001 7.53648 2.37373C8.67861 2.24999 10.1182 2.24999 11.9548 2.25ZM7.69805 3.865C6.66013 3.97745 6.00992 4.19259 5.50191 4.56168C5.14111 4.82382 4.82382 5.14111 4.56168 5.50191C4.19259 6.00992 3.97745 6.66013 3.865 7.69805C3.75103 8.74999 3.75 10.1084 3.75 12C3.75 13.8916 3.75103 15.25 3.865 16.302C3.97745 17.3399 4.19259 17.9901 4.56168 18.4981C4.82382 18.8589 5.14111 19.1762 5.50191 19.4383C6.00992 19.8074 6.66013 20.0225 7.69805 20.135C8.74999 20.249 10.1084 20.25 12 20.25C13.8916 20.25 15.25 20.249 16.302 20.135C17.3399 20.0225 17.9901 19.8074 18.4981 19.4383C18.8589 19.1762 19.1762 18.8589 19.4383 18.4981C19.8074 17.9901 20.0225 17.3399 20.135 16.302C20.249 15.25 20.25 13.8916 20.25 12C20.25 11.1517 20.25 10.4082 20.2392 9.74818C19.7645 9.74381 19.4151 9.72904 19.1005 9.67921C16.6401 9.28952 14.7105 7.35988 14.3208 4.8995C14.271 4.58489 14.2562 4.23547 14.2518 3.76082C13.5918 3.75005 12.8483 3.75 12 3.75C10.1084 3.75 8.74999 3.75103 7.69805 3.865ZM15.7528 3.81744C15.7575 4.22238 15.7699 4.45981 15.8023 4.66485C16.0904 6.48339 17.5166 7.90965 19.3352 8.19768C19.5402 8.23015 19.7776 8.24254 20.1826 8.24722C20.0888 6.88687 19.8739 6.10137 19.4383 5.50191C19.1762 5.14111 18.8589 4.82382 18.4981 4.56168C17.8986 4.12615 17.1131 3.91121 15.7528 3.81744ZM7.25 14C7.25 13.5858 7.58579 13.25 8 13.25H14C14.4142 13.25 14.75 13.5858 14.75 14C14.75 14.4142 14.4142 14.75 14 14.75H8C7.58579 14.75 7.25 14.4142 7.25 14Z" fill="#525B73"/>
</svg>
