<svg width="24" height="24" viewBox="0 0 24 24" fill="none" xmlns="http://www.w3.org/2000/svg">
<path fill-rule="evenodd" clip-rule="evenodd" d="M11.114 7.26302C11.5114 7.26302 11.8335 7.58516 11.8335 7.98254V8.60273H13.5737C13.9613 8.60273 14.2755 8.91692 14.2755 9.30449C14.2755 9.69206 13.9613 10.0062 13.5737 10.0062H9.7149C9.38625 10.0062 9.07107 10.1336 8.83868 10.3602C8.60629 10.5869 8.47573 10.8943 8.47573 11.2148C8.47573 11.5354 8.60629 11.8428 8.83868 12.0694C9.07107 12.2961 9.38626 12.4234 9.7149 12.4234H12.513C13.2233 12.4234 13.9046 12.6986 14.4068 13.1885C14.9091 13.6783 15.1913 14.3427 15.1913 15.0355C15.1913 15.7283 14.9091 16.3926 14.4068 16.8825C13.9046 17.3724 13.2233 17.6476 12.513 17.6476H11.8335V18.367C11.8335 18.7644 11.5114 19.0865 11.114 19.0865C10.7166 19.0865 10.3945 18.7644 10.3945 18.367V17.6476H8.31213C7.92456 17.6476 7.61038 17.3334 7.61038 16.9458C7.61038 16.5582 7.92456 16.2441 8.31213 16.2441H12.513C12.8417 16.2441 13.1569 16.1167 13.3893 15.8901C13.6217 15.6634 13.7522 15.356 13.7522 15.0355C13.7522 14.7149 13.6217 14.4075 13.3893 14.1809C13.1569 13.9542 12.8417 13.8269 12.513 13.8269H9.7149C9.0046 13.8269 8.32338 13.5517 7.82112 13.0618C7.31886 12.572 7.03669 11.9076 7.03669 11.2148C7.03669 10.5221 7.31886 9.85766 7.82112 9.3678C8.32338 8.87794 9.0046 8.60273 9.7149 8.60273H10.3945V7.98254C10.3945 7.58516 10.7166 7.26302 11.114 7.26302Z" fill="#525B73"/>
<path d="M19.9607 10.966C20.1352 11.653 20.2278 12.3715 20.2278 13.1111C20.2278 18.0203 16.1474 22 11.1139 22C6.08044 22 2 18.0203 2 13.1111C2 8.20191 6.08044 4.22222 11.1139 4.22222C12.329 4.22222 13.4885 4.45414 14.5486 4.87505C14.3361 5.33734 14.2022 5.84148 14.1635 6.3713C13.2309 5.9693 12.1991 5.74603 11.1139 5.74603C6.94332 5.74603 3.56239 9.04349 3.56239 13.1111C3.56239 17.1787 6.94332 20.4762 11.1139 20.4762C15.2845 20.4762 18.6655 17.1787 18.6655 13.1111C18.6655 12.4229 18.5687 11.7568 18.3877 11.1249C18.4938 11.1321 18.6009 11.1358 18.7089 11.1358C19.143 11.1358 19.5629 11.0766 19.9607 10.966Z" fill="#525B73"/>
<path d="M18.7396 9.68428C18.443 9.97355 17.9621 9.97355 17.6655 9.68428L15.6402 7.70897C15.5674 7.63795 15.5124 7.5561 15.4754 7.46873C15.4382 7.38139 15.4177 7.28562 15.4177 7.18519C15.4177 7.08475 15.4382 6.98898 15.4754 6.90164C15.5124 6.81427 15.5674 6.73242 15.6402 6.6614C15.7879 6.51733 15.9813 6.44501 16.1749 6.44445L16.1772 6.44444H21.2405C21.66 6.44444 22 6.77609 22 7.18519C22 7.59429 21.66 7.92593 21.2405 7.92593H18.0108L18.7396 8.63671C19.0362 8.92599 19.0362 9.395 18.7396 9.68428Z" fill="#525B73"/>
<path d="M19.7522 2.21696C19.4556 1.92768 18.9747 1.92768 18.6781 2.21696C18.3815 2.50624 18.3815 2.97525 18.6781 3.26452L19.4069 3.97531H16.1772C15.7578 3.97531 15.4177 4.30695 15.4177 4.71605C15.4177 5.12515 15.7578 5.45679 16.1772 5.45679H21.2405C21.3435 5.45679 21.4417 5.4368 21.5312 5.40058C21.6208 5.36444 21.7047 5.31085 21.7775 5.23983C21.9253 5.09576 21.9994 4.9071 22 4.71827L22 4.71605L22 4.71383C21.9997 4.6142 21.9792 4.5192 21.9424 4.43251C21.9053 4.34514 21.8504 4.26329 21.7775 4.19227L19.7522 2.21696Z" fill="#525B73"/>
</svg>
